<?xml version="1.0" encoding="UTF-8"?>
<svg width="200px" height="200px" viewBox="0 0 200 200" version="1.1" xmlns="http://www.w3.org/2000/svg" xmlns:xlink="http://www.w3.org/1999/xlink">
    <title>No Results</title>
    <defs>
        <linearGradient x1="50%" y1="0%" x2="50%" y2="100%" id="linearGradient-1">
            <stop stop-color="#F8F9FA" offset="0%"></stop>
            <stop stop-color="#E9ECEF" offset="100%"></stop>
        </linearGradient>
    </defs>
    <g stroke="none" stroke-width="1" fill="none" fill-rule="evenodd">
        <circle fill="#F8F9FA" cx="100" cy="100" r="100"></circle>
        <rect fill="url(#linearGradient-1)" x="50" y="60" width="100" height="80" rx="4"></rect>
        <rect fill="#DEE2E6" x="60" y="75" width="80" height="10" rx="2"></rect>
        <rect fill="#DEE2E6" x="60" y="95" width="60" height="10" rx="2"></rect>
        <rect fill="#DEE2E6" x="60" y="115" width="40" height="10" rx="2"></rect>
        <g transform="translate(60.000000, 45.000000)">
            <circle fill="#6C757D" cx="40" cy="5" r="5"></circle>
            <path d="M70,0 L80,10 M80,0 L70,10" stroke="#6C757D" stroke-width="3" stroke-linecap="round"></path>
        </g>
        <path d="M45,140 L75,140 L60,155 L45,140 Z" fill="#ADB5BD"></path>
        <path d="M125,140 L155,140 L140,155 L125,140 Z" fill="#ADB5BD"></path>
        <path d="M85,140 C85,150 115,150 115,140" stroke="#ADB5BD" stroke-width="3" stroke-linecap="round"></path>
    </g>
</svg>